<svg width="42" height="42" fill="none" xmlns="http://www.w3.org/2000/svg"><path d="M21 41.25a6.758 6.758 0 01-6.75-6.75l.12-6.87-6.83.12C3.78 27.75.75 24.721.75 21a6.758 6.758 0 016.75-6.75l6.87-.121-.12-6.588C14.25 3.777 17.28.75 21 .75a6.758 6.758 0 016.75 6.75l.124 6.629 6.667.121c3.68 0 6.71 3.029 6.71 6.75a6.758 6.758 0 01-6.75 6.75l-6.627-.12-.124 6.91c0 3.681-3.028 6.71-6.75 6.71zm-2.25-18v11.29c0 1.2 1.01 2.21 2.25 2.21s2.25-1.01 2.25-2.25V23.25h11.29c1.2 0 2.21-1.01 2.21-2.25s-1.01-2.25-2.25-2.25H23.25V7.5c0-1.28-1.01-2.25-2.25-2.25s-2.25 1.01-2.25 2.25v11.25H7.5c-1.28 0-2.25 1.01-2.25 2.25s1.01 2.25 2.25 2.25h11.25z" fill="#fff"/></svg>