<svg width="16" height="27" fill="none" xmlns="http://www.w3.org/2000/svg"><path d="M4.717 17.711v-1.264c0-1.094.233-2.045.7-2.854.468-.81 1.322-1.67 2.564-2.58 1.196-.855 1.982-1.55 2.358-2.086a2.99 2.99 0 00.581-1.794c0-.74-.273-1.305-.82-1.692-.547-.387-1.31-.581-2.29-.581-1.709 0-3.657.558-5.845 1.675L.103 2.792C2.643 1.368 5.338.656 8.186.656c2.347 0 4.21.564 5.588 1.692 1.39 1.128 2.085 2.631 2.085 4.511 0 1.254-.284 2.336-.854 3.247-.57.912-1.652 1.937-3.247 3.077-1.094.809-1.789 1.424-2.085 1.845-.285.422-.427.974-.427 1.658v1.025h-4.53zm-.547 5.845c0-.957.256-1.68.769-2.17s1.259-.735 2.239-.735c.945 0 1.675.25 2.187.752.524.501.786 1.219.786 2.153 0 .9-.262 1.612-.786 2.136-.524.513-1.253.77-2.187.77-.957 0-1.698-.251-2.222-.753-.524-.512-.786-1.23-.786-2.153z" fill="#fff"/></svg>