<svg width="263" height="67" fill="none" xmlns="http://www.w3.org/2000/svg"><path d="M93.06 33.32h6.668v8.96c-1.09.35-2.14.598-3.148.744-1 .147-2.082.22-3.247.22-2.743 0-4.858-.797-6.346-2.392-1.487-1.604-2.23-3.862-2.23-6.775 0-2.873.838-5.12 2.515-6.739 1.678-1.627 3.987-2.441 6.929-2.441 1.892 0 3.685.358 5.379 1.074l-1.041 2.43c-1.471-.668-2.942-1.002-4.413-1.002-1.933 0-3.462.599-4.586 1.795-1.123 1.196-1.685 2.832-1.685 4.907 0 2.181.504 3.841 1.512 4.98 1.016 1.132 2.475 1.697 4.375 1.697.959 0 1.983-.118 3.074-.354v-4.602H93.06V33.32zM112.358 43l-.583-1.88h-.098c-.661.822-1.326 1.384-1.997 1.685-.669.293-1.528.44-2.577.44-1.347 0-2.401-.359-3.16-1.075-.752-.716-1.128-1.73-1.128-3.04 0-1.391.524-2.441 1.574-3.149 1.049-.708 2.648-1.095 4.796-1.16l2.368-.073v-.72c0-.863-.207-1.506-.621-1.929-.404-.431-1.036-.647-1.895-.647a6.69 6.69 0 00-2.021.305 15.63 15.63 0 00-1.859.72l-.942-2.05a10.048 10.048 0 012.442-.867 11.183 11.183 0 012.504-.305c1.743 0 3.057.374 3.941 1.123.892.749 1.338 1.925 1.338 3.528V43h-2.082zm-4.338-1.953c1.057 0 1.904-.289 2.541-.867.644-.586.966-1.404.966-2.453v-1.172l-1.759.073c-1.372.049-2.372.277-2.999.684-.621.398-.931 1.013-.931 1.843 0 .602.182 1.07.546 1.404.363.325.909.488 1.636.488zm22.061-11.548v1.575l-2.342.427c.215.285.393.635.533 1.05.14.415.21.854.21 1.318 0 1.392-.487 2.486-1.462 3.284-.975.797-2.318 1.196-4.028 1.196-.438 0-.834-.032-1.19-.097-.628.382-.942.83-.942 1.342 0 .31.145.541.434.696.297.155.838.232 1.623.232h2.392c1.513 0 2.662.317 3.446.952.785.635 1.178 1.55 1.178 2.747 0 1.53-.64 2.71-1.921 3.54-1.281.83-3.132 1.245-5.553 1.245-1.867 0-3.292-.326-4.276-.977-.983-.65-1.474-1.579-1.474-2.783 0-.83.264-1.53.793-2.1.537-.561 1.284-.952 2.243-1.171a2.243 2.243 0 01-.967-.782 2.017 2.017 0 01-.372-1.147c0-.505.145-.932.434-1.282.289-.35.719-.696 1.289-1.037a3.846 3.846 0 01-1.735-1.465c-.438-.684-.657-1.481-.657-2.393 0-1.465.467-2.6 1.4-3.406.942-.805 2.281-1.208 4.016-1.208.389 0 .794.028 1.215.085.43.05.752.102.967.159h4.746zm-10.77 15.6c0 .62.281 1.095.843 1.429.57.334 1.367.5 2.392.5 1.587 0 2.768-.224 3.545-.671.776-.448 1.165-1.042 1.165-1.782 0-.586-.215-1.005-.645-1.258-.421-.244-1.21-.366-2.367-.366h-2.206c-.835 0-1.5.191-1.996.574-.487.39-.731.915-.731 1.575zm1.252-11.23c0 .846.219 1.498.657 1.953.446.456 1.082.684 1.908.684 1.686 0 2.529-.887 2.529-2.661 0-.88-.211-1.555-.632-2.027-.413-.48-1.046-.72-1.897-.72-.842 0-1.483.236-1.921.708-.429.472-.644 1.16-.644 2.063zM141.211 43l-.582-1.88h-.099c-.661.822-1.326 1.384-1.996 1.685-.669.293-1.528.44-2.578.44-1.346 0-2.4-.359-3.16-1.075-.752-.716-1.128-1.73-1.128-3.04 0-1.391.524-2.441 1.574-3.149 1.049-.708 2.648-1.095 4.797-1.16l2.367-.073v-.72c0-.863-.207-1.506-.62-1.929-.404-.431-1.037-.647-1.896-.647-.702 0-1.375.102-2.02.305-.645.204-1.264.444-1.859.72l-.943-2.05a10.064 10.064 0 012.442-.867 11.19 11.19 0 012.504-.305c1.743 0 3.057.374 3.941 1.123.892.749 1.339 1.925 1.339 3.528V43h-2.083zm-4.337-1.953c1.057 0 1.904-.289 2.54-.867.645-.586.967-1.404.967-2.453v-1.172l-1.76.073c-1.371.049-2.371.277-2.999.684-.62.398-.93 1.013-.93 1.843 0 .602.182 1.07.545 1.404.364.325.909.488 1.637.488zm17.438-11.792c.587 0 1.07.04 1.45.122l-.285 2.673a5.583 5.583 0 00-1.289-.146c-1.165 0-2.111.374-2.839 1.123-.718.749-1.078 1.721-1.078 2.917V43h-2.912V29.499h2.281l.383 2.38h.15c.454-.805 1.044-1.444 1.771-1.916a4.31 4.31 0 012.368-.708zM161.228 43h-2.912V29.499h2.912V43zm-3.086-17.078c0-.512.14-.907.421-1.184.29-.276.699-.415 1.227-.415.513 0 .91.139 1.19.415.289.277.434.672.434 1.184 0 .489-.145.875-.434 1.16-.28.277-.677.415-1.19.415-.528 0-.937-.138-1.227-.415-.281-.285-.421-.671-.421-1.16zM177.465 43h-2.926v-8.3c0-1.042-.215-1.82-.644-2.332-.422-.513-1.095-.77-2.021-.77-1.23 0-2.131.359-2.702 1.075-.569.716-.854 1.916-.854 3.6V43h-2.913V29.499h2.28l.409 1.77h.149c.414-.643 1-1.14 1.76-1.49.76-.35 1.603-.524 2.528-.524 3.289 0 4.934 1.648 4.934 4.944V43zm25.692-9.094c0 2.946-.83 5.2-2.491 6.763-1.661 1.554-4.052 2.331-7.176 2.331h-5.069V25.153h5.602c2.883 0 5.127.765 6.73 2.295 1.602 1.53 2.404 3.683 2.404 6.458zm-3.123.097c0-4.272-2.028-6.408-6.086-6.408h-2.565v12.951h2.107c4.362 0 6.544-2.18 6.544-6.543zM209.665 43h-2.913V29.499h2.913V43zm-3.087-17.078c0-.512.14-.907.421-1.184.29-.276.699-.415 1.227-.415.513 0 .91.139 1.19.415.289.277.434.672.434 1.184 0 .489-.145.875-.434 1.16-.28.277-.677.415-1.19.415-.528 0-.937-.138-1.227-.415-.281-.285-.421-.671-.421-1.16zm18.839 3.577v1.575l-2.342.427c.214.285.392.635.532 1.05.141.415.211.854.211 1.318 0 1.392-.487 2.486-1.462 3.284-.975.797-2.318 1.196-4.029 1.196-.437 0-.834-.032-1.19-.097-.627.382-.941.83-.941 1.342 0 .31.144.541.434.696.297.155.838.232 1.623.232h2.392c1.512 0 2.661.317 3.445.952.786.635 1.178 1.55 1.178 2.747 0 1.53-.64 2.71-1.921 3.54-1.28.83-3.131 1.245-5.553 1.245-1.867 0-3.292-.326-4.275-.977-.984-.65-1.475-1.579-1.475-2.783 0-.83.265-1.53.794-2.1.536-.561 1.284-.952 2.242-1.171a2.235 2.235 0 01-.966-.782 2.017 2.017 0 01-.372-1.147c0-.505.144-.932.434-1.282.289-.35.719-.696 1.288-1.037a3.861 3.861 0 01-1.735-1.465c-.438-.684-.657-1.481-.657-2.393 0-1.465.467-2.6 1.401-3.406.942-.805 2.281-1.208 4.016-1.208.388 0 .793.028 1.214.085.43.05.753.102.967.159h4.747zm-10.77 15.6c0 .62.28 1.095.843 1.429.569.334 1.367.5 2.392.5 1.586 0 2.767-.224 3.544-.671.777-.448 1.165-1.042 1.165-1.782 0-.586-.214-1.005-.644-1.258-.421-.244-1.211-.366-2.368-.366h-2.206c-.835 0-1.5.191-1.995.574-.487.39-.731.915-.731 1.575zm1.252-11.23c0 .846.218 1.498.657 1.953.445.456 1.082.684 1.909.684 1.685 0 2.528-.887 2.528-2.661 0-.88-.212-1.555-.633-2.027-.413-.48-1.045-.72-1.895-.72-.844 0-1.484.236-1.923.708-.429.472-.643 1.16-.643 2.063zM230.883 43h-2.913V29.499h2.913V43zm-3.087-17.078c0-.512.141-.907.422-1.184.289-.276.698-.415 1.227-.415.512 0 .909.139 1.19.415.29.277.434.672.434 1.184 0 .489-.144.875-.434 1.16-.281.277-.678.415-1.19.415-.529 0-.938-.138-1.227-.415-.281-.285-.422-.671-.422-1.16zm12.37 15.003a7.18 7.18 0 002.132-.33v2.16c-.323.14-.74.253-1.252.343a8.258 8.258 0 01-1.574.146c-2.76 0-4.14-1.432-4.14-4.297v-7.275h-1.871v-1.27l2.008-1.05.991-2.856h1.797V29.5h3.904v2.173h-3.904v7.226c0 .692.174 1.205.521 1.538.355.326.817.489 1.388.489zM253.626 43l-.583-1.88h-.099c-.661.822-1.326 1.384-1.995 1.685-.669.293-1.528.44-2.578.44-1.346 0-2.4-.359-3.161-1.075-.751-.716-1.128-1.73-1.128-3.04 0-1.391.525-2.441 1.575-3.149 1.049-.708 2.648-1.095 4.796-1.16l2.367-.073v-.72c0-.863-.206-1.506-.619-1.929-.405-.431-1.037-.647-1.897-.647-.701 0-1.376.102-2.019.305-.645.204-1.264.444-1.859.72l-.943-2.05a10.064 10.064 0 012.442-.867 11.174 11.174 0 012.503-.305c1.744 0 3.058.374 3.941 1.123.893.749 1.34 1.925 1.34 3.528V43h-2.083zm-4.338-1.953c1.058 0 1.905-.289 2.541-.867.645-.586.967-1.404.967-2.453v-1.172l-1.76.073c-1.372.049-2.372.277-3 .684-.619.398-.929 1.013-.929 1.843 0 .602.182 1.07.545 1.404.364.325.909.488 1.636.488zM262.686 43h-2.912V24.006h2.912V43zM33.5 67C15.03 67 0 51.97 0 33.5S15.03 0 33.5 0 67 15.03 67 33.5 51.97 67 33.5 67zm0-64.544C16.373 2.456 2.456 16.39 2.456 33.5c0 17.127 13.934 31.044 31.044 31.044S64.544 50.61 64.544 33.5 50.61 2.456 33.5 2.456z" fill="#000"/><path d="M43.188 21.245c-3.07 0-5.575-2.466-5.575-5.487s2.506-5.487 5.575-5.487c3.07 0 5.575 2.466 5.575 5.487 0 3.02-2.505 5.487-5.575 5.487zm0-9.912c-2.472 0-4.496 1.975-4.496 4.425 0 2.45 2.008 4.425 4.496 4.425 2.473 0 4.497-1.976 4.497-4.425 0-2.45-2.024-4.425-4.497-4.425z" fill="#000"/><path d="M43.736 10.761h-1.078v9.863h1.078v-9.863z" fill="#000"/><path d="M48.183 15.17H38.161v1.062h10.022V15.17z" fill="#000"/><path d="M43.537 21.081l-.614-.882c1.792-1.224 2.721-2.89 2.622-4.719-.1-1.73-1.112-3.364-2.572-4.164l.514-.93c1.792.98 3.02 2.955 3.136 5.045.133 2.205-.962 4.213-3.086 5.65z" fill="#000"/><path d="M42.906 21.098c-1.692-.833-2.953-2.94-3.086-5.111-.133-2.27.946-4.263 3.02-5.585l.597.898c-1.742 1.11-2.638 2.743-2.538 4.621.1 1.78 1.145 3.56 2.489 4.23l-.482.947zm-19.479 2.808c-1.709 1.846-2.72 2.809-2.953 4.017-.15.768-.481-2.09-.315-3.592.166-1.568.498-1.943 1.029-2.27.315-.196 1.078-.44 1.841-.604.034 0 .25.147.299.392.066.277-.133.424-.249.865-.166.54.431 1.094.348 1.192zm14.618 11.268c2.29-.735 5.624-1.78 5.641-1.748.713.703 2.107 1.911 2.787 3.315.996 2.041.73 3.005.764 2.989.248-.098 2.488-.915 4.91-1.91.25-2.516-.348-3.202-.862-3.985-.68-1.045-2.157-1.96-2.074-2.613.033-.229-.199-.898-.647-1.029-.05-.016-.116 0-.133 0-.88.245-9.44 2.988-11.083 3.495-.58.18.382 1.584.697 1.486zm-18.002 3.968c-.1.326.05 1.143.365 1.47.016.016-2.82.832-4.148 1.257-.166.049-.598-.261-.647-.784-.034-.408.133-.62.332-.686 1.692-.522 4.114-1.273 4.098-1.257z" fill="#000"/><path d="M44.848 22.682c-.017.081-.597 2.024-1.46 2.172-.548.098-.714-.098-.797-.213-.365-.49-.332-1.437-.348-1.437-.315.13-.531.523-.58.653-.3.735-.15 1.176-.25 1.584-.215.866-1.758 1.699-2.472 1.617-.813-.082-1.161-1.323-2.621-2.58-.648-.555-1.51-1.176-2.406-1.502-.133-.05-.2-.196-.183-.441 0-.017 0-.05.05-.147.05-.066.2-.18.315-.294.896-.833 1.41-2.123 1.444-3.527.05-1.241-.448-2.45-1.377-3.413-1.129-1.16-2.589-1.862-4.314-1.895-1.71-.032-3.236.54-4.314 1.486-.25.197-.382.343-.382.343a5.464 5.464 0 00-1.377 2.646c-.15.653-.166 1.192-.15 1.42.034.621.133 1.127.515 1.895.266.522.68.816.564 1.078-.05.114-.166.146-.332.424-.1.147-.116.229-.132.278a.803.803 0 000 .408c.1.375.431.506.514.686.249.522-1.31 1.633-2.124 2.53-1.26 1.389-2.19 3.528-2.372 4.965-.332 2.629.215 4.376.663 5.536.017.032.15.408.183.653.05.408-.05.604-.1 1.078-.033.44-.033.8.1 1.126.249.654.78 1.225 1.56 1.437.165.05 1.078.327 1.924-.196.398-.245.514-.522.614-.75.033-.099.116-.393.05-.393-.166.033-.531.017-.946-.294-.282-.212-.564-.686-.58-1.208a1.55 1.55 0 01.149-.751c.033-.05.066-.163.282-.376.1-.114.315-.228.315-.228.017-.05-.249-.213-.415-.588-.73-1.682.166-3.952.697-4.23.083-.049-.597 3.707 1.327 5.046.017.017-1.062.343-1.095.36-.166.13-.315.49-.182.832.116.278.332.62.78.572.132-.016.979-.294.995-.294.05 0 .133.898-.216 1.682-.1.228-.332.686-.879 1.16l-.05.048c.548.931 1.726 2.123 3.435 5.275.215.392.332.75.398.914v.098c.05.751-2.256 2.4-2.555 4.066-.067.408 0 .735.166 1.388.48 1.992 2.107 4.49 3.55 4.262.996-.163 1.743-1.568 1.875-2.58.15-1.192-.448-1.551-.232-2.678.282-1.535 1.61-1.6 2.588-3.674.482-1.029.598-1.927.614-2.156.282-2.694-1.493-4.49-.962-4.768.133-.081 2.522.751 3.036 2.499.614 2.09-1.61 3.576-.763 6.025.232.653.597 1.078.83 1.356 1.294 1.47 3.65 2.351 4.463 1.6.614-.572.348-2.074-.1-2.776-.083-.114-.298-.425-.547-.768-.398-.522-.531-.62-.63-.75-.631-.964 1.343-3.07 1.94-5.618a2.98 2.98 0 00.067-1.225c-.1-.784-.498-1.355-.747-1.682-1.46-1.894-4.048-3.135-5.392-5.34-1.228-2.024-1.095-4.343-.564-4.572.48-.212 1.377 1.355 3.086 1.258.166-.017.282-.033.381-.05 1.477-.277 2.87-1.992 4.049-3.412.995-1.192 1.095-1.356 1.908-2.531.315-.458.398-.605.481-1.11.166-1.405-.962-2.01-.962-2.01zm-11.283-6.27a3.5 3.5 0 01.482.816c.05.147.282.767.265 1.404-.033 1.127-.265 1.73-.93 2.482-.049.049-.331.31-.38.343-.283.18-.333.229-.648.375-.464.18-1.012.278-1.626.31-2.505.115-4.198-1.436-4.131-3.363.033-.915.415-1.813 1.161-2.531 1.228-1.143 2.887-1.062 3.186-1.062 1.228.017 2.107.556 2.621 1.225z" fill="#000"/></svg>