<svg width="106" height="107" viewBox="0 0 104 106" xmlns="http://www.w3.org/2000/svg"><path d="M57.501.5c12 .75 23.25 6.75 31.5 15 9.75 10.5 15 23.25 15 38.25 0 12-4.5 23.25-12 33-7.5 9-18 15.75-30 18s-24 .75-34.5-5.25-18.75-15-23.25-26.25-5.25-24-1.5-35.25c3.75-12 10.5-21.75 21-28.5 9.75-6.75 21.75-9.75 33.75-9zm3.75 96.75c9.75-2.25 18.75-7.5 25.5-15.75 6-8.25 9.75-18 9-28.5 0-12-4.5-24-12.75-32.25-7.5-7.5-16.5-12-27-12.75-9.75-.75-20.25 1.5-28.5 7.5s-14.25 14.25-17.25 24.75c-3 9.75-3 20.25 1.5 30s11.25 17.25 20.25 22.5 19.5 6.75 29.25 4.5z" fill="#fff"/><path d="M38 30.5l5.828-3.12 33.75 22.5v6.24l-33.75 22.5L38 75.5v-45zm7.5 7.005v30.99L68.743 53 45.501 37.505z" fill="#fff"/></svg>